<?xml version="1.0" encoding="utf-8"?>
<!-- Generator: Adobe Illustrator 24.3.0, SVG Export Plug-In . SVG Version: 6.00 Build 0)  -->
<svg version="1.1" id="Layer_1" xmlns="http://www.w3.org/2000/svg" xmlns:xlink="http://www.w3.org/1999/xlink" x="0px" y="0px"
	 viewBox="0 0 250 58" style="enable-background:new 0 0 250 58;" xml:space="preserve">
<style type="text/css">
	.st0{fill:url(#SVGID_1_);}
	.st1{fill:url(#SVGID_2_);}
	.st2{fill:url(#SVGID_3_);}
	.st3{fill:url(#SVGID_4_);}
	.st4{fill:url(#SVGID_5_);}
	.st5{fill:#9F84BC;}
	.st6{fill:url(#SVGID_6_);}
	.st7{fill:url(#SVGID_7_);}
	.st8{fill:url(#SVGID_8_);}
	.st9{fill:url(#SVGID_9_);}
</style>
<g>
	
		<linearGradient id="SVGID_1_" gradientUnits="userSpaceOnUse" x1="44.2" y1="-133.8102" x2="44.2" y2="-112.0349" gradientTransform="matrix(1 0 0 -1 0 -82.1102)">
		<stop  offset="0" style="stop-color:#AA92C4;stop-opacity:0"/>
		<stop  offset="1" style="stop-color:#AA92C4"/>
	</linearGradient>
	<path class="st0" d="M44.4,51.7h-0.5c-0.2,0-0.4-0.1-0.5-0.3l-5.3-15.1H38L35.5,51c0,0.2-0.3,0.4-0.5,0.4h-1.1
		c-0.4,0-0.6-0.3-0.5-0.7L37,31.5c0.1-0.2,0.3-0.4,0.5-0.4H38c0.2,0,0.4,0.1,0.5,0.3l5.7,15.8h0.1l5.6-15.8c0.1-0.2,0.3-0.3,0.5-0.3
		h0.5c0.2,0,0.5,0.2,0.5,0.4L55,50.8c0.1,0.4-0.1,0.7-0.5,0.7h-1.1c-0.2,0-0.5-0.2-0.5-0.4l-2.6-14.8h-0.1l-5.3,15.1
		C44.9,51.6,44.6,51.7,44.4,51.7"/>
	
		<linearGradient id="SVGID_2_" gradientUnits="userSpaceOnUse" x1="75.25" y1="-133.7732" x2="75.25" y2="-114.8994" gradientTransform="matrix(1 0 0 -1 0 -82.1102)">
		<stop  offset="0" style="stop-color:#AA92C4;stop-opacity:0"/>
		<stop  offset="1" style="stop-color:#AA92C4"/>
	</linearGradient>
	<path class="st1" d="M80.9,51.4H69.6c-0.3,0-0.5-0.3-0.5-0.5v-19c0-0.3,0.2-0.5,0.5-0.5h11.3c0.3,0,0.5,0.3,0.5,0.5v0.8
		c0,0.3-0.2,0.5-0.5,0.5h-9.6v7h8.2c0.3,0,0.5,0.3,0.5,0.5v0.8c0,0.3-0.3,0.5-0.5,0.5h-8.2v7.3h9.6c0.3,0,0.5,0.3,0.5,0.5v0.8
		C81.4,51.2,81.2,51.4,80.9,51.4"/>
	
		<linearGradient id="SVGID_3_" gradientUnits="userSpaceOnUse" x1="104.2" y1="-133.7732" x2="104.2" y2="-114.8994" gradientTransform="matrix(1 0 0 -1 0 -82.1102)">
		<stop  offset="0" style="stop-color:#AA92C4;stop-opacity:0"/>
		<stop  offset="1" style="stop-color:#AA92C4"/>
	</linearGradient>
	<path class="st2" d="M102.6,51.4h-6.4c-0.3,0-0.5-0.3-0.5-0.5v-19c0-0.3,0.2-0.5,0.5-0.5h6.4c5.5,0,10.1,4.5,10.1,10
		C112.6,46.9,108.1,51.4,102.6,51.4 M97.8,33.3v16.1h4.3c4.7,0,8.1-3.4,8.1-8.1s-3.4-8.1-8.1-8.1L97.8,33.3"/>
	
		<linearGradient id="SVGID_4_" gradientUnits="userSpaceOnUse" x1="127.7598" y1="-133.7732" x2="127.7598" y2="-114.8994" gradientTransform="matrix(1 0 0 -1 0 -82.1102)">
		<stop  offset="0" style="stop-color:#AA92C4;stop-opacity:0"/>
		<stop  offset="1" style="stop-color:#AA92C4"/>
	</linearGradient>
	<path class="st3" d="M128.3,51.4h-1.1c-0.3,0-0.5-0.3-0.5-0.5v-19c0-0.3,0.3-0.5,0.5-0.5h1.1c0.3,0,0.5,0.3,0.5,0.5v19
		C128.9,51.2,128.6,51.4,128.3,51.4"/>
	
		<linearGradient id="SVGID_5_" gradientUnits="userSpaceOnUse" x1="150.3309" y1="-133.7732" x2="150.3309" y2="-114.8994" gradientTransform="matrix(1 0 0 -1 0 -82.1102)">
		<stop  offset="0" style="stop-color:#AA92C4;stop-opacity:0"/>
		<stop  offset="1" style="stop-color:#AA92C4"/>
	</linearGradient>
	<path class="st4" d="M159.2,51.4H158c-0.3,0-0.4-0.2-0.5-0.3l-2.1-4.7h-10.2l-2.1,4.7c-0.1,0.1-0.2,0.3-0.5,0.3h-1.1
		c-0.4,0-0.7-0.4-0.5-0.7l8.7-19.3c0.1-0.2,0.2-0.3,0.5-0.3h0.3c0.3,0,0.4,0.1,0.5,0.3l8.7,19.3C159.8,51.1,159.6,51.4,159.2,51.4
		 M150.2,35.2l-4.2,9.4h8.6c-1.4-3.1-2.8-6.3-4.2-9.4L150.2,35.2"/>
	<path class="st5" d="M14.8,14.7l-1.9-1.9l1.9-3l1.9,3L14.8,14.7L14.8,14.7z M14.8,5.8l-4.6,7.6l4.7,4.1l4.6-4L14.8,5.8L14.8,5.8z"
		/>
	<polygon class="st5" points="14.8,23 8,17 9.6,14.2 14.8,18.8 19.9,14.3 21.6,17.1 	"/>
	<polygon class="st5" points="27.5,26.9 2,26.9 7.5,17.8 14.7,24.3 22.1,18 	"/>
	<path class="st5" d="M37.8,7c0.1-0.2,0.3-0.4,0.5-0.4h0.5c0.2,0,0.4,0.1,0.5,0.3L45,22.7l0,0l5.6-15.8c0.1-0.2,0.3-0.3,0.5-0.3h0.5
		c0.2,0,0.5,0.2,0.5,0.4l3.7,19.3c0.1,0.4-0.1,0.7-0.5,0.7h-1.1c-0.2,0-0.5-0.2-0.5-0.4l-2.6-14.8H51l-5.3,15.1
		c-0.1,0.2-0.3,0.3-0.5,0.3h-0.5c-0.2,0-0.4-0.1-0.5-0.3l-5.3-15.1h-0.1l-2.5,14.8c0,0.2-0.3,0.4-0.5,0.4h-1.1
		c-0.4,0-0.6-0.3-0.5-0.7L37.8,7L37.8,7z"/>
	<path class="st5" d="M74.9,17.3L68,7.7c-0.2-0.4,0-0.8,0.5-0.8h1.3c0.2,0,0.4,0.1,0.5,0.3l5.8,8l5.8-8C82,7,82.1,6.9,82.3,6.9h1.3
		c0.5,0,0.7,0.5,0.5,0.8l-7,9.5v9.1c0,0.3-0.3,0.5-0.5,0.5h-1.1c-0.3,0-0.5-0.3-0.5-0.5v-9C75,17.3,74.9,17.3,74.9,17.3z"/>
	<path class="st5" d="M97,23.9c0.1-0.2,0.3-0.4,0.4-0.5c0.3-0.4,0.6-0.6,1-0.3c0.2,0.2,2.3,2.2,4.8,2.2c2.3,0,3.8-1.5,3.8-3.2
		c0-2-1.7-3.2-5-4.5c-3.2-1.4-5-2.7-5-5.9c0-2,1.5-5.1,6.1-5.1c2.8,0,4.9,1.5,4.9,1.5c0.2,0.1,0.5,0.4,0.2,1
		c-0.1,0.2-0.2,0.4-0.3,0.5c-0.3,0.4-0.5,0.5-1,0.3c-0.2-0.1-2-1.3-3.8-1.3c-3,0-4,1.9-4,3.2c0,1.9,1.5,3,3.9,4
		c3.9,1.6,6.4,3,6.4,6.4c0,3-2.8,5.2-6.2,5.2c-3.4,0-5.7-2-6-2.3C96.9,24.7,96.6,24.5,97,23.9L97,23.9z"/>
	<path class="st5" d="M127.6,8.8h-5c-0.3,0-0.5-0.3-0.5-0.5V7.4c0-0.3,0.2-0.5,0.5-0.5h12.2c0.3,0,0.5,0.3,0.5,0.5v0.8
		c0,0.3-0.2,0.5-0.5,0.5h-5v17.6c0,0.3-0.3,0.5-0.5,0.5h-1.1c-0.3,0-0.5-0.3-0.5-0.5L127.6,8.8L127.6,8.8z"/>
	<path class="st5" d="M149.6,7.4c0-0.3,0.3-0.5,0.5-0.5h1.1c0.3,0,0.5,0.3,0.5,0.5v19c0,0.3-0.3,0.5-0.5,0.5h-1.1
		c-0.3,0-0.5-0.3-0.5-0.5V7.4L149.6,7.4z"/>
	<path class="st5" d="M177.8,6.6c2.9,0,5,1,6.9,2.7c0.2,0.2,0.3,0.6,0,0.8l-0.8,0.8c-0.2,0.3-0.5,0.3-0.7,0
		c-1.5-1.3-3.5-2.2-5.5-2.2c-4.5,0-8,3.8-8,8.3c0,4.4,3.5,8.2,8,8.2c2.5,0,4-1,5.5-2.2c0.3-0.2,0.5-0.2,0.7-0.1l0.9,0.8
		c0.2,0.2,0.2,0.6,0,0.8c-2,1.9-4.4,2.8-7,2.8c-5.7,0-10.4-4.6-10.4-10.3C167.4,11.2,172,6.6,177.8,6.6L177.8,6.6z"/>
	<g>
		
			<linearGradient id="SVGID_6_" gradientUnits="userSpaceOnUse" x1="15.003" y1="831.0007" x2="14.4205" y2="813.6415" gradientTransform="matrix(1 0 0 1 0 -781.8898)">
			<stop  offset="0" style="stop-color:#AA92C4;stop-opacity:0"/>
			<stop  offset="1" style="stop-color:#AA92C4"/>
		</linearGradient>
		<path class="st6" d="M14.8,52.2l-4.6-7.6l4.7-4.1l4.6,4L14.8,52.2 M14.8,43.3l-1.9,1.9l1.9,3l1.9-3L14.8,43.3"/>
		
			<linearGradient id="SVGID_7_" gradientUnits="userSpaceOnUse" x1="15.0738" y1="830.9983" x2="14.4913" y2="813.639" gradientTransform="matrix(1 0 0 1 0 -781.8898)">
			<stop  offset="0" style="stop-color:#AA92C4;stop-opacity:0"/>
			<stop  offset="1" style="stop-color:#AA92C4"/>
		</linearGradient>
		<polyline class="st7" points="9.6,43.7 8,41 14.8,35 21.6,40.9 19.9,43.6 14.8,39.2 9.6,43.7 		"/>
		
			<linearGradient id="SVGID_8_" gradientUnits="userSpaceOnUse" x1="15.354" y1="830.9889" x2="14.7715" y2="813.6296" gradientTransform="matrix(1 0 0 1 0 -781.8898)">
			<stop  offset="0" style="stop-color:#AA92C4;stop-opacity:0"/>
			<stop  offset="1" style="stop-color:#AA92C4"/>
		</linearGradient>
		<polyline class="st8" points="7.5,40.1 2,31.1 27.5,31.1 22.1,40 14.7,33.7 7.5,40.1 		"/>
	</g>
</g>
<g>
	<linearGradient id="SVGID_9_" gradientUnits="userSpaceOnUse" x1="170.8173" y1="76.0479" x2="170.8173" y2="45.6221">
		<stop  offset="0" style="stop-color:#AA92C4;stop-opacity:0"/>
		<stop  offset="1" style="stop-color:#AA92C4"/>
	</linearGradient>
	<path class="st9" d="M175.5,52c-0.3,0.6-0.6,1.2-1.1,1.6c-0.5,0.5-1,0.8-1.6,1.1c-0.6,0.3-1.3,0.4-2,0.4c-0.7,0-1.4-0.1-2-0.4
		c-0.6-0.3-1.2-0.6-1.6-1.1c-0.5-0.5-0.8-1-1.1-1.6c-0.3-0.6-0.4-1.3-0.4-2c0-0.7,0.1-1.4,0.4-2c0.3-0.6,0.6-1.2,1.1-1.6
		c0.5-0.5,1-0.8,1.6-1.1c0.6-0.3,1.3-0.4,2-0.4s1.4,0.1,2,0.4c0.6,0.3,1.2,0.6,1.6,1.1c0.5,0.5,0.8,1,1.1,1.6c0.3,0.6,0.4,1.3,0.4,2
		C175.9,50.7,175.8,51.4,175.5,52z M175.1,48.2c-0.2-0.6-0.6-1.1-1-1.5c-0.4-0.4-0.9-0.8-1.5-1c-0.6-0.2-1.2-0.4-1.8-0.4
		c-0.7,0-1.3,0.1-1.8,0.4c-0.6,0.2-1.1,0.6-1.5,1c-0.4,0.4-0.7,0.9-1,1.5c-0.2,0.6-0.4,1.2-0.4,1.8c0,0.6,0.1,1.2,0.4,1.8
		c0.2,0.6,0.6,1.1,1,1.5c0.4,0.4,0.9,0.8,1.5,1c0.6,0.2,1.2,0.4,1.8,0.4c0.7,0,1.3-0.1,1.8-0.4c0.6-0.2,1.1-0.6,1.5-1
		c0.4-0.4,0.7-0.9,1-1.5c0.2-0.6,0.4-1.2,0.4-1.8C175.5,49.4,175.3,48.8,175.1,48.2z M172.7,49.9c-0.3,0.3-0.6,0.4-1,0.5l1.6,2.1h-1
		l-1.5-2h-1.3v2h-0.8v-5.2h2.3c0.6,0,1.1,0.1,1.4,0.4c0.4,0.3,0.6,0.7,0.6,1.2C173.1,49.3,173,49.6,172.7,49.9z M172,48.2
		c-0.2-0.2-0.5-0.2-0.9-0.2h-1.5v1.9h1.5c0.4,0,0.7-0.1,0.9-0.2c0.2-0.2,0.3-0.4,0.3-0.7C172.3,48.6,172.2,48.4,172,48.2z"/>
</g>
</svg>
